<svg width="32" height="32" viewBox="0 0 32 32" fill="none" xmlns="http://www.w3.org/2000/svg">
  <circle cx="16" cy="16" r="16" fill="#DC2626"/>
  <rect x="6" y="8" width="20" height="16" rx="2" fill="white"/>
  <rect x="8" y="10" width="16" height="4" rx="1" fill="#1F2937"/>
  <text x="16" y="12.8" text-anchor="middle" fill="white" font-family="Arial" font-size="3" font-weight="bold">123</text>
  <rect x="9" y="16" width="2" height="2" rx="0.3" fill="#DC2626"/>
  <rect x="12" y="16" width="2" height="2" rx="0.3" fill="#DC2626"/>
  <rect x="15" y="16" width="2" height="2" rx="0.3" fill="#DC2626"/>
  <rect x="18" y="16" width="2" height="2" rx="0.3" fill="#DC2626"/>
  <rect x="21" y="16" width="2" height="2" rx="0.3" fill="#DC2626"/>
  <rect x="9" y="19" width="2" height="2" rx="0.3" fill="#DC2626"/>
  <rect x="12" y="19" width="2" height="2" rx="0.3" fill="#DC2626"/>
  <rect x="15" y="19" width="2" height="2" rx="0.3" fill="#DC2626"/>
  <rect x="18" y="19" width="2" height="2" rx="0.3" fill="#DC2626"/>
  <rect x="21" y="19" width="2" height="2" rx="0.3" fill="#DC2626"/>
  <rect x="9" y="22" width="2" height="2" rx="0.3" fill="#DC2626"/>
  <rect x="12" y="22" width="2" height="2" rx="0.3" fill="#DC2626"/>
  <rect x="15" y="22" width="2" height="2" rx="0.3" fill="#DC2626"/>
  <rect x="18" y="22" width="2" height="2" rx="0.3" fill="#DC2626"/>
  <rect x="21" y="22" width="2" height="2" rx="0.3" fill="#DC2626"/>
</svg>